<svg width="138" height="200" viewBox="0 0 138 200" fill="none" xmlns="http://www.w3.org/2000/svg">
<path d="M126.354 127.769L122.197 131.925L126.354 127.769Z" fill="#118DD6"/>
<path d="M40.3088 27.0909C40.3088 25.2037 41.4129 23.5769 43.0094 22.8164C41.7658 22.0219 40.29 21.5576 38.7047 21.5576C34.2868 21.5576 30.703 25.1395 30.703 29.5594C30.703 33.9792 34.2849 37.5611 38.7047 37.5611C42.4131 37.5611 45.5307 35.0379 46.4385 31.6164C45.9969 31.7523 45.5288 31.8259 45.0438 31.8259C42.4282 31.824 40.3088 29.7066 40.3088 27.0909Z" fill="#118DD6"/>
<path d="M137.849 139.551L126.516 128.22V127.892L137.849 116.559L126.516 105.228V100.188C126.516 96.2982 123.114 93.1352 118.93 93.1352H92.773C91.4991 93.1352 90.2989 93.4296 89.2439 93.9467C88.1399 94.4884 87.1963 95.2734 86.4981 96.2284C86.2357 96.5869 86.0074 96.97 85.8187 97.372C85.4129 98.2345 85.1864 99.1875 85.1864 100.188V106.733C85.1864 110.622 88.5891 113.785 92.773 113.785H101.977V147.53V151.665H73.5594V119.111V109.633V89.9704C73.5594 88.8739 73.3254 87.8322 72.9083 86.8886L76.7884 86.5168L98.7837 84.4088L127.539 81.6535C129.817 81.427 131.834 80.474 133.225 79.1228C134.459 77.9244 135.205 76.409 135.205 74.8048V71.4116C135.09 71.3437 134.986 71.2531 134.897 71.1418L121.689 54.4249L115.769 61.6624L107.999 71.1569C107.784 71.4211 107.461 71.574 107.12 71.574C106.778 71.574 106.455 71.4211 106.24 71.1569L92.5333 54.4061L78.8266 71.1569C78.6114 71.4211 78.2887 71.574 77.9471 71.574C77.6056 71.574 77.2828 71.4211 77.0677 71.1569L62.4815 53.3322C62.0833 52.8472 62.155 52.1301 62.6419 51.7319C63.1269 51.3337 63.8441 51.4054 64.2423 51.8923L77.949 68.6431L91.6558 51.8923C91.8709 51.6281 92.1955 51.4752 92.5352 51.4752C92.8768 51.4752 93.1995 51.6281 93.4146 51.8923L107.121 68.6431L114.155 60.0488L120.828 51.8942C121.047 51.6281 121.372 51.4752 121.717 51.4771C122.061 51.4809 122.385 51.6394 122.598 51.9093L135.207 67.8656V47.9877V42.1053C135.207 41.6693 135.152 41.2409 135.046 40.8239C135.192 40.1822 135.273 39.5142 135.273 38.8291C135.273 33.8695 131.238 29.8366 126.28 29.8366C122.936 29.8366 120.015 31.6728 118.465 34.3885L85.3167 31.2105L78.8605 30.5915L53.3229 28.1438C52.6077 20.7912 46.3931 15.0258 38.8575 15.0258C32.2806 15.0258 26.7115 19.4173 24.9243 25.4205L24.06 25.3375C23.8222 25.313 23.5825 25.3016 23.3485 25.3016C21.2424 25.3016 19.3721 26.2433 18.0511 27.7758C16.8018 29.2251 16.0412 31.201 16.0412 33.4109L16.0488 61.0264L15.7638 61.3113L0 77.0751L15.9318 93.0069L0.388763 108.55L0 108.939L16.0582 124.997L0.435943 141.055L16.0733 156.692L16.0884 192.385C16.0884 196.584 19.491 200 23.675 200C23.675 200 37.227 199.972 54.2061 199.917L54.1231 200H55.2781L55.1931 199.915C66.8995 199.877 80.1155 199.828 91.6029 199.766C107.667 199.679 120.345 199.572 120.76 199.441C124.176 198.373 126.518 195.884 126.518 192.912V173.875L127.422 172.971L137.851 162.543L126.518 151.212V150.884L137.849 139.551ZM126.316 35.3132C128.056 35.3132 129.468 36.7249 129.468 38.4649C129.468 40.2049 128.056 41.6165 126.316 41.6165C124.576 41.6165 123.165 40.2049 123.165 38.4649C123.163 36.7249 124.574 35.3132 126.316 35.3132ZM49.6655 31.3822C48.7955 36.5626 44.2813 40.5238 38.8575 40.5238C32.8128 40.5238 27.8947 35.6058 27.8947 29.5629C27.8947 29.4742 27.8985 29.3855 27.9023 29.2987C27.9325 28.0626 28.1646 26.8774 28.5723 25.7734C30.1179 21.5914 34.1452 18.6021 38.8575 18.6021C44.3002 18.6021 48.8276 22.5897 49.675 27.7965C49.7693 28.3721 49.8203 28.9628 49.8203 29.5629C49.8184 30.1819 49.7636 30.7896 49.6655 31.3822Z" fill="#118DD6"/>
<path d="M132.853 2.95347L120.017 12.5367C117.425 9.13595 110.501 6.70334 102.364 6.70334C100.003 6.70334 97.7456 6.90905 95.6641 7.28272C95.681 7.09211 95.6905 6.89961 95.6905 6.70334C95.6905 5.11998 95.1413 3.66683 94.2241 2.5213C92.9955 0.98512 91.1065 0 88.9871 0C85.9223 0 83.3387 2.05894 82.5404 4.86898L75.5182 10.1116H83.2142C83.2142 10.1116 84.3087 11.5893 85.0504 12.1291C86.1563 12.933 87.517 13.4086 88.989 13.4086C89.491 13.4086 89.9798 13.352 90.4497 13.2463C90.6139 17.3038 91.7141 21.8349 95.0734 23.6014C96.0528 24.1166 97.1889 24.3374 98.391 24.4091V33.2884C98.391 33.5639 98.6137 33.7866 98.8893 33.7866C99.1648 33.7866 99.3875 33.5639 99.3875 33.2884V24.4374C99.9782 24.4374 100.578 24.411 101.178 24.3732V33.2865C101.178 33.562 101.401 33.7847 101.677 33.7847C101.952 33.7847 102.175 33.562 102.175 33.2865V24.3053C102.239 24.2996 102.303 24.2958 102.367 24.2921C110.335 23.7014 115.721 21.048 119.237 17.5321C120.624 16.145 120.815 15.9582 120.992 14.5145C120.994 14.505 120.994 14.4975 120.996 14.4881H137.46L132.853 2.95347ZM86.3639 6.68259C85.6185 6.68259 85.0127 6.07679 85.0127 5.33135C85.0127 4.5859 85.6185 3.98011 86.3639 3.98011C87.1094 3.98011 87.7152 4.5859 87.7152 5.33135C87.7152 6.07679 87.1094 6.68259 86.3639 6.68259Z" fill="#118DD6"/>
</svg>
